<?xml version="1.0" standalone="no"?>
<!DOCTYPE svg PUBLIC "-//W3C//DTD SVG 20010904//EN"
 "http://www.w3.org/TR/2001/REC-SVG-20010904/DTD/svg10.dtd">
<svg version="1.0" xmlns="http://www.w3.org/2000/svg"
 width="1000.000000pt" height="1000.000000pt" viewBox="0 0 1000.000000 1000.000000"
 preserveAspectRatio="xMidYMid meet">
<metadata>
Created by potrace 1.11, written by Peter Selinger 2001-2013
</metadata>
<g transform="translate(0.000000,1000.000000) scale(0.100000,-0.100000)"
fill="#000000" stroke="none">
<path d="M4175 9544 c-266 -23 -445 -54 -570 -96 -170 -58 -290 -150 -347
-266 -28 -57 -33 -78 -36 -163 -5 -121 6 -186 69 -402 27 -95 70 -271 95 -392
125 -607 205 -945 255 -1075 58 -152 159 -298 242 -349 18 -10 78 -35 134 -55
121 -42 172 -73 217 -135 86 -118 136 -262 236 -681 113 -471 126 -530 225
-1020 52 -256 123 -607 159 -780 35 -173 88 -452 116 -620 133 -794 300 -1571
416 -1930 142 -442 367 -855 534 -981 153 -115 336 -174 468 -150 134 25 205
88 282 253 40 86 68 186 92 333 21 127 17 689 -5 831 -19 124 -73 350 -117
494 -16 52 -54 185 -84 295 -62 224 -95 324 -189 570 -85 223 -207 567 -356
1005 -66 195 -154 445 -195 555 -97 260 -241 701 -356 1090 -51 171 -139 458
-196 639 l-104 328 34 38 c43 48 57 92 59 186 l2 76 170 67 c190 75 272 117
309 162 54 64 25 114 -107 189 -54 30 -97 58 -97 63 0 4 34 44 75 87 68 71 75
83 75 119 0 46 -19 69 -78 94 -20 9 -59 25 -85 36 l-48 20 15 35 c8 20 28 55
44 78 109 160 97 235 -51 314 -43 22 -83 46 -88 51 -7 7 0 35 19 84 43 108 58
189 53 281 -1 35 -36 54 -137 73 -42 8 -78 16 -80 18 -2 2 4 25 12 52 8 28 22
95 30 150 l15 100 -27 21 c-14 12 -55 30 -91 39 -52 14 -63 21 -58 34 4 9 14
43 22 76 22 84 10 111 -52 121 -68 10 -135 -2 -252 -46 -57 -22 -119 -42 -138
-46 -31 -5 -35 -3 -50 28 -59 117 -136 133 -480 102z m345 -107 c17 -9 26 -22
28 -45 3 -27 -2 -35 -30 -52 -43 -27 -130 -52 -310 -90 -81 -17 -172 -39 -202
-50 -81 -27 -204 -95 -254 -138 l-43 -37 26 -210 c95 -771 231 -1304 395
-1545 144 -212 306 -271 615 -225 83 13 302 61 367 81 20 6 53 -73 44 -104 -4
-12 -31 -45 -61 -75 -69 -69 -70 -80 -9 -252 71 -202 126 -377 255 -815 184
-620 298 -960 519 -1549 50 -135 169 -468 265 -740 96 -273 214 -609 264 -747
253 -707 327 -1109 292 -1598 -30 -407 -121 -636 -273 -677 -58 -15 -180 -6
-250 19 -267 96 -464 385 -651 957 -153 467 -278 1002 -412 1770 -136 775
-396 2093 -505 2552 -173 734 -236 857 -500 980 -218 101 -251 127 -304 232
-40 78 -167 578 -301 1181 -36 162 -79 342 -95 400 -46 165 -62 248 -62 342
-1 74 2 94 25 140 49 99 128 157 262 191 53 14 648 101 750 110 87 8 131 6
155 -6z m515 -54 c-4 -10 -14 -53 -23 -96 l-17 -79 25 -20 c20 -16 33 -19 75
-13 28 3 59 3 68 -1 25 -9 22 -64 -8 -164 -14 -46 -25 -103 -25 -127 0 -37 4
-44 31 -58 17 -9 58 -21 92 -26 116 -17 110 -14 104 -68 -3 -27 -25 -93 -48
-147 -24 -57 -44 -121 -47 -150 -5 -57 -5 -57 120 -104 77 -28 110 -56 102
-84 -9 -32 -56 -122 -108 -206 -25 -41 -46 -82 -46 -91 0 -25 43 -53 133 -84
43 -15 80 -32 83 -36 9 -15 -24 -63 -81 -119 -31 -30 -63 -68 -72 -84 -14 -27
-13 -30 13 -57 15 -16 70 -49 121 -74 51 -24 93 -49 93 -55 0 -19 -252 -134
-394 -180 -36 -12 -43 -11 -83 11 -24 13 -43 29 -43 36 0 7 9 36 20 65 45 120
21 155 -100 145 l-70 -6 0 26 c0 14 14 68 30 120 32 98 37 156 19 196 -10 21
-22 26 -87 36 -42 6 -78 13 -80 16 -2 2 8 55 24 117 61 250 30 335 -127 347
l-69 6 55 115 c61 128 70 185 36 219 -23 23 -77 35 -121 29 -17 -3 -30 -3 -30
0 0 7 40 61 86 114 43 50 94 135 94 157 0 20 -56 39 -132 46 -43 4 -78 10 -78
13 0 3 20 37 44 76 24 39 49 89 56 111 l12 40 147 48 c194 63 217 67 206 40z
m-473 -175 c-10 -24 -35 -67 -56 -95 -20 -28 -36 -60 -36 -71 0 -34 43 -55
126 -60 45 -3 74 -9 74 -16 0 -10 -22 -39 -117 -156 -44 -53 -70 -117 -60
-144 5 -13 24 -16 102 -16 76 0 95 -3 95 -14 0 -8 -27 -70 -60 -138 -33 -68
-63 -137 -66 -155 -5 -28 -3 -33 24 -47 19 -10 56 -16 94 -16 35 0 80 -3 102
-7 l38 -6 -6 -55 c-4 -30 -22 -101 -41 -157 -19 -56 -37 -125 -41 -153 -8 -62
0 -68 116 -84 44 -7 80 -15 80 -18 0 -4 -16 -69 -35 -146 -19 -76 -35 -158
-35 -183 l0 -44 100 7 99 8 -18 -54 c-10 -29 -29 -75 -41 -103 -20 -47 -20
-50 -4 -62 10 -7 22 -13 28 -13 32 0 -22 -22 -109 -44 -261 -67 -465 -59 -588
23 -38 24 -38 25 -15 34 12 4 70 19 126 33 114 27 172 48 172 62 0 6 -16 17
-36 27 -42 20 -66 17 -199 -25 -158 -50 -145 -52 -193 33 -40 70 -104 209 -98
214 1 2 38 9 81 18 73 14 376 93 383 100 5 5 -28 65 -35 65 -4 0 -106 -25
-226 -56 -126 -32 -224 -51 -229 -46 -17 17 -96 293 -84 298 119 42 452 134
485 134 10 0 24 6 30 14 17 21 -13 79 -37 72 -252 -74 -503 -139 -510 -131 -7
7 -62 261 -58 271 5 14 56 28 264 73 235 52 236 52 229 97 -4 20 -8 38 -9 40
-2 2 -40 -8 -83 -22 -129 -40 -272 -73 -351 -80 l-74 -7 0 26 c0 14 -6 56 -14
94 -31 152 -31 143 6 143 46 0 147 29 310 89 75 28 155 53 177 57 45 7 46 8
30 51 l-10 31 -59 -14 c-32 -7 -118 -35 -192 -62 -73 -27 -166 -57 -207 -66
-85 -19 -90 -17 -92 49 -5 115 10 164 67 225 75 80 188 122 470 174 76 14 159
32 184 39 25 8 47 13 48 11 2 -1 -5 -22 -16 -46z"/>
<path d="M4044 7082 c-18 -11 -34 -48 -34 -76 0 -20 5 -26 23 -26 37 0 57 23
71 83 6 24 4 27 -21 27 -16 0 -33 -4 -39 -8z"/>
<path d="M4141 6988 c-12 -31 9 -53 42 -44 26 6 44 37 32 56 -3 5 -20 10 -36
10 -22 0 -32 -6 -38 -22z"/>
<path d="M4758 6339 c-38 -19 -58 -45 -58 -73 0 -11 10 -16 33 -16 40 0 74 32
83 78 8 38 -3 40 -58 11z"/>
<path d="M4806 6177 c-10 -7 -16 -22 -14 -33 2 -15 12 -19 42 -19 49 0 72 28
42 51 -25 18 -47 18 -70 1z"/>
<path d="M5850 2399 c-9 -15 -8 -24 1 -37 22 -29 42 -42 66 -42 32 0 31 43 -2
75 -30 30 -51 32 -65 4z"/>
<path d="M5680 2275 c0 -39 27 -83 60 -100 40 -21 50 -19 50 11 0 50 -49 114
-87 114 -18 0 -23 -5 -23 -25z"/>
<path d="M4772 9183 c2 -23 11 -31 48 -43 25 -9 51 -18 59 -21 10 -4 7 -18
-13 -67 -33 -78 -35 -122 -5 -122 52 0 99 100 99 211 0 35 -2 38 -47 53 -26 9
-69 16 -95 16 -48 0 -49 -1 -46 -27z"/>
<path d="M4893 8635 c-8 -22 22 -52 73 -71 24 -9 44 -18 44 -21 0 -2 -12 -22
-26 -45 -35 -55 -44 -125 -18 -135 26 -10 77 54 108 138 14 39 26 74 26 79 0
4 -30 22 -66 39 -73 34 -131 40 -141 16z"/>
<path d="M5045 8180 c-24 -27 -14 -45 39 -69 26 -11 46 -27 46 -35 0 -8 -9
-39 -20 -67 -28 -70 -20 -109 21 -109 22 0 29 5 29 19 0 10 14 49 31 85 46 99
33 145 -54 181 -48 20 -70 19 -92 -5z"/>
<path d="M5196 7731 c-22 -25 -20 -34 14 -53 40 -23 46 -55 22 -130 -19 -60
-19 -63 -1 -66 31 -5 60 18 81 65 36 82 4 172 -69 192 -25 7 -35 6 -47 -8z"/>
</g>
</svg>
